<?xml version="1.0" encoding="iso-8859-1"?>
<!-- Generator: Adobe Illustrator 19.0.0, SVG Export Plug-In . SVG Version: 6.00 Build 0)  -->
<svg version="1.1" id="Capa_1" xmlns="http://www.w3.org/2000/svg" xmlns:xlink="http://www.w3.org/1999/xlink" x="0px" y="0px"
	 viewBox="0 0 512 512" style="enable-background:new 0 0 512 512;" xml:space="preserve">
<g transform="matrix(1.25 0 0 -1.25 0 45)">
	<path style="fill:#292F33;" d="M233.244,36c-19.581,0-38.036-4.62-54.545-12.641c-4.46,0.785-9.034,1.263-13.722,1.263
		c-43.987,0-79.644-35.658-79.644-79.644v-136.533h0.205c2.082-73.58,62.248-132.62,136.328-132.62s134.246,59.04,136.328,132.62
		h0.205v102.4C358.4-20.036,302.364,36,233.244,36"/>
	<path style="fill:#F7DECE;" d="M119.467-20.889v-136.533c0-56.559,45.841-102.4,102.4-102.4s102.4,45.841,102.4,102.4v136.533
		H119.467z"/>
	<path style="fill:#292F33;" d="M324.255-20.889v11.378H108.089v-11.378v-68.267c68.267,0,68.267,68.267,68.267,68.267
		s22.756-79.644,159.289-79.644v79.644H324.255z"/>
	<path style="fill:#F7DECE;" d="M158.395,2.601c-6.725,4.426-15.781,2.548-20.207-4.175l-7.339-11.173v25.987
		c0,12.572-10.195,22.756-22.756,22.756H62.582c-12.572,0-22.756-10.183-22.756-22.756v-91.022c0,0,0-11.378,11.378-11.378h68.267
		l11.378,11.378v11.867l31.721,48.31C167.007-10.871,165.13-1.825,158.395,2.601"/>
	<g>
		<path style="fill:#D89882;" d="M73.956-20.889H62.578V36h11.378V-20.889z"/>
		<path style="fill:#D89882;" d="M108.089-20.889H96.711V36h11.378V-20.889z"/>
	</g>
	<path style="fill:#9268CA;" d="M324.267-271.2H130.844h-11.378l11.378,193.422H39.822V-271.2c0,0,0-102.4,91.022-102.4h238.933
		v56.889C369.778-291.578,349.4-271.2,324.267-271.2"/>
	<path style="fill:#C1694F;" d="M233.244-185.867h-22.756c-3.141,0-5.689,2.548-5.689,5.689c0,3.141,2.548,5.689,5.689,5.689h22.756
		c3.141,0,5.689-2.548,5.689-5.689C238.933-183.318,236.385-185.867,233.244-185.867"/>
	<g>
		<path style="fill:#662113;" d="M176.356-146.044c-6.28,0-11.378,5.097-11.378,11.378v11.378c0,6.28,5.097,11.378,11.378,11.378
			s11.378-5.097,11.378-11.378v-11.378C187.733-140.947,182.636-146.044,176.356-146.044"/>
		<path style="fill:#662113;" d="M267.378-146.044c-6.292,0-11.378,5.097-11.378,11.378v11.378c0,6.28,5.086,11.378,11.378,11.378
			c6.292,0,11.378-5.097,11.378-11.378v-11.378C278.756-140.947,273.67-146.044,267.378-146.044"/>
	</g>
	<path style="fill:#F7DECE;" d="M187.733-214.311v-68.267c0-18.853,15.281-34.133,34.133-34.133S256-301.431,256-282.578v68.267
		H187.733z"/>
	<path style="fill:#DF1F32;" d="M267.378-214.311h-45.511h-45.511c0,0,11.378-22.756,45.511-22.756S267.378-214.311,267.378-214.311
		"/>
	<path style="fill:#7450A8;" d="M324.267-373.6h-11.378v45.511h11.378V-373.6z"/>
</g>
<g>
</g>
<g>
</g>
<g>
</g>
<g>
</g>
<g>
</g>
<g>
</g>
<g>
</g>
<g>
</g>
<g>
</g>
<g>
</g>
<g>
</g>
<g>
</g>
<g>
</g>
<g>
</g>
<g>
</g>
</svg>
